# xmcd
#
# Track frame offsets:
#	150
#	16978
#	34215
#	45050
#	61855
#	80030
#	99308
#	112733
#	125245
#	140968
#	156338
#
# Disc length: 2322 seconds
#
# Revision: 0
# Processed by: cddbd v1.5.2PL0 Copyright (c) Steve Scherf et al.
# Submitted via: dBpowerAMP V4.0
#
DISCID=8d09100b
DTITLE=Various Artist - CDX Volume 34
DYEAR=1900
DGENRE=
TTITLE0=Kenny Rogers - Bed Of Roses
TTITLE1=Billy Rae Cyrus - Could've Been Me
TTITLE2=Nitty Gritty Dirt Band - I Fought The Law
TTITLE3=Forester Sisters - I Got A Date
TTITLE4=Vince Gill - I Still Believe In You
TTITLE5=Dolly Parton - Light Of A Clear Blue Mornng
TTITLE6=Black Tie - Listen To The Radio
TTITLE7=Rob Crosby - She Wrote The Book
TTITLE8=George Strait - So Much Like My Dad
TTITLE9=Tim Mensy - This Ol' Heart
TTITLE10=Rodney Crowell - What Kind Of Love
EXTD=
EXTT0=
EXTT1=
EXTT2=
EXTT3=
EXTT4=
EXTT5=
EXTT6=
EXTT7=
EXTT8=
EXTT9=
EXTT10=
PLAYORDER=
